<?xml version="1.0" encoding="UTF-8"?>
<!-- Created with Inkscape (http://www.inkscape.org/) -->
<svg width="23.812mm" height="23.812mm" version="1.1" viewBox="0 0 23.812 23.812" xmlns="http://www.w3.org/2000/svg">
 <g transform="translate(63.416 -267.99)">
  <g transform="translate(-966.7 44.108)">
   <g transform="translate(205.26 15.181)">
    <rect x="698.03" y="208.7" width="23.812" height="23.812" ry="3.3744" fill-opacity="0" style="paint-order:markers fill stroke"/>
   </g>
   <g transform="matrix(.55122 0 0 .55122 908.58 229.18)" stroke-width="10.24">
    <path d="m9.4948-2.3568e-4c-3.8871 0-7.1947 2.6484-8.0241 6.3656l-1.3584 4.8562c-0.30977 1.4089 0.02974 2.868 0.92906 3.9872 0.1299 0.15988 0.27011 0.31949 0.42 0.45938 0.28978 0.27978 0.64904 0.42 1.0388 0.42 0.38971 0 0.78928-0.15054 1.0791-0.46031 0.57956-0.59955 0.56017-1.5482-0.039375-2.1178-0.059954-0.04996-0.11035-0.10974-0.16031-0.16969-0.32974-0.41968-0.44994-0.94971-0.36-1.3894h-0.00937l1.3584-4.8562c0.53959-2.4082 2.6487-4.0969 5.1169-4.0969 0.2598 0 0.51926 0.02003 0.77906 0.06 0.82938 0.11991 1.5892-0.43968 1.7091-1.2591 0.11991-0.81938-0.43968-1.5892-1.2591-1.7091-0.3997-0.059956-0.81-0.09-1.2197-0.09zm4.9969 3.9975c-3.8871 0-7.1953 2.6475-8.0147 6.3647l-1.3584 4.8562c-0.30977 1.4089 0.029731 2.868 0.92906 3.9872 0.89932 1.1292 2.2486 1.7691 3.6975 1.7691h1.3584c0.21984 1.6887 1.6488 2.9972 3.3975 2.9972 1.7487 0 3.1777-1.3085 3.3975-2.9972h1.3594c1.4889 0 2.8679-0.67933 3.7772-1.8684 0.89932-1.1891 1.1891-2.6983 0.78938-4.1372l-0.02062 0.01031-1.3791-4.9566c-0.98926-3.5473-4.2459-6.0253-7.9331-6.0253zm0 2.9972c2.3482 0 4.4161 1.5789 5.0456 3.8372l1.3791 4.9566c0.14989 0.5396 0.04006 1.0691-0.28969 1.5188v-0.01031c-0.32975 0.43967-0.83947 0.69-1.3791 0.69h-9.5128c-0.5296 0-1.0296-0.24-1.3594-0.64969-0.32975-0.4097-0.45899-0.94971-0.35906-1.3894l1.3584-4.8562c0.53959-2.4182 2.6387-4.0969 5.1169-4.0969zm0.01031 2.3409c-0.33998 0-0.6452 0.1868-0.81469 0.495l-2.8388 5.0513c-0.17249 0.31577-0.17381 0.69291-0.0028 1.0097 0.1705 0.31678 0.47687 0.50625 0.81938 0.50625h5.6719c0.34301 0 0.64931-0.18998 0.82031-0.50625 0.17095-0.31627 0.16948-0.69356-0.0066-1.0144h9.38e-4l-2.8331-5.0409c-0.1715-0.31325-0.47658-0.50062-0.81656-0.50062zm-0.0019 1.5141c0.41766 0 0.7575 0.3384 0.7575 0.75656v1.0088c0 0.41817-0.33984 0.75656-0.7575 0.75656s-0.75656-0.3384-0.75656-0.75656v-1.0088c0-0.41816 0.3389-0.75656 0.75656-0.75656zm0 3.0262c0.41766 0 0.7575 0.3389 0.7575 0.75656 0 0.41766-0.33984 0.75656-0.7575 0.75656s-0.75656-0.3389-0.75656-0.75656c0-0.41766 0.3389-0.75656 0.75656-0.75656z" fill="#2b2b2b" stroke-width="10.24"/>
   </g>
  </g>
 </g>
</svg>
