<?xml version="1.0" encoding="UTF-8"?>
<!-- Created with Inkscape (http://www.inkscape.org/) -->
<svg width="23.812mm" height="23.812mm" version="1.1" viewBox="0 0 23.812 23.812" xmlns="http://www.w3.org/2000/svg">
 <g transform="translate(9.2456 -264.48)">
  <g transform="translate(-569.46 79.702)">
   <g transform="translate(2.2222 -62.232)">
    <rect x="558" y="247.01" width="23.812" height="23.812" ry="3.3744" fill-opacity="0" style="paint-order:markers fill stroke"/>
    <path d="m571.83 260.57h1.6536v1.6536h-1.6536zm0-3.8585h1.6536v-1.6536h-1.6536zm0 2.7561h1.6536v-1.6536h-1.6536zm4.6853-5.2366v11.3h-13.229v-8.0869c0-0.51539 0.20064-0.99991 0.565-1.3643l1.4921-1.4921c0.81524-0.81524 2.2363-0.81524 3.051 0l0.40349 0.40349v-0.76013c0-1.0638 0.86541-1.9292 1.9293-1.9292h3.8585c1.0638 0 1.9292 0.8654 1.9292 1.9292zm-7.717 3.213c0-0.0739-0.0287-0.14277-0.0805-0.19514l-1.4921-1.4921c-0.18797-0.18742-0.52476-0.18742-0.71272 0l-1.4922 1.4921c-0.0518 0.0524-0.0805 0.12127-0.0805 0.19514v6.4332h3.8585v-6.4332zm6.0634-3.213c0-0.15213-0.12347-0.27561-0.27561-0.27561h-3.8585c-0.15213 0-0.27561 0.12348-0.27561 0.27561v9.6463h4.4097zm-8.8194 5.2366h1.6536v-1.6536h-1.6536zm0 2.7561h1.6536v-1.6536h-1.6536z" fill="#2b2b2b" stroke-width="5.6444"/>
   </g>
  </g>
 </g>
</svg>
