<?xml version="1.0" encoding="UTF-8"?>
<!-- Created with Inkscape (http://www.inkscape.org/) -->
<svg width="23.812mm" height="23.812mm" version="1.1" viewBox="0 0 23.812 23.812" xmlns="http://www.w3.org/2000/svg">
 <g transform="translate(2.9141 -244.64)">
  <g transform="translate(-789.46 28.057)">
   <rect x="786.54" y="216.58" width="23.812" height="23.812" ry="3.3744" fill-opacity="0" style="paint-order:markers fill stroke"/>
   <path d="m803.75 222.94a2.5962 2.8176 0 0 0-2.1323-0.61014l-1.9877 0.39171a2.0803 2.2577 0 0 0-1.1847 0.72755 2.0803 2.2577 0 0 0-1.1878-0.72755l-1.9846-0.39171a2.6003 2.8222 0 0 0-3.0684 2.7759v6.0919a2.6003 2.8222 0 0 0 2.1349 2.7764l3.2691 0.64515a4.6806 5.0799 0 0 0 1.6736 0l3.2717-0.64515a2.6003 2.8222 0 0 0 2.1323-2.7764v-6.0919a2.5915 2.8126 0 0 0-0.93612-2.1657zm-5.8247 10.592c-0.0437-7e-3 -0.0874-0.0146-0.13105-0.0231l-3.2686-0.64459a1.5602 1.6933 0 0 1-1.2809-1.6662v-6.0919a1.5602 1.6933 0 0 1 1.5602-1.6933 1.6023 1.739 0 0 1 0.28084 0.0276l1.9866 0.3951a1.0401 1.1289 0 0 1 0.85291 1.108zm5.7207-2.3339a1.5602 1.6933 0 0 1-1.2809 1.6662l-3.2686 0.64459c-0.0437 8e-3 -0.0874 0.0164-0.13106 0.0231v-8.5884a1.0401 1.1289 0 0 1 0.85395-1.1108l1.9872-0.3951a1.5602 1.6933 0 0 1 1.8395 1.6685z" color="#000000" fill="#2b2b2b" stroke-width=".79375" style="-inkscape-stroke:none"/>
   <path d="m795.34 221.93c-1.8195-0.36135-3.5085 1.1684-3.5086 3.1759v6.0918c7e-5 1.5575 1.0298 2.8971 2.4416 3.1759l3.269 0.64398c0.5976 0.11785 1.2102 0.11785 1.8078 0l3.2709-0.64398h2e-3c1.4107-0.28016 2.4382-1.6195 2.438-3.1759v-6.0918c5.6e-4 -0.95728-0.39232-1.8661-1.0706-2.4779-0.67661-0.61402-1.5703-0.86952-2.438-0.69799l-1.9883 0.39199c-0.43299 0.0863-0.78883 0.37584-1.1185 0.68598-0.33047-0.31014-0.68668-0.60042-1.1204-0.68598zm-0.13453 0.79998 1.9865 0.39199c0.37729 0.0745 0.71926 0.28392 0.97298 0.59599l0.28194 0.34599 0.28009-0.34599c0.25306-0.31153 0.59477-0.52298 0.97114-0.59798v2e-3l1.9865-0.39198h2e-3c0.64976-0.12893 1.3176 0.0622 1.8243 0.52198 0.5079 0.45764 0.80201 1.1375 0.8016 1.854v6.0918c1.4e-4 1.1692-0.76644 2.1655-1.8262 2.376l-3.2709 0.64598c-0.50906 0.10035-1.0296 0.10035-1.5387 0l-3.269-0.64598c-1.0606-0.20944-1.828-1.206-1.828-2.376v-6.0918c9e-5 -1.5165 1.2515-2.6489 2.6259-2.3759zm-0.39988 0.276c-1.064 0-1.9349 0.94514-1.9349 2.1v6.0918c-1.4e-4 1.0121 0.67095 1.8848 1.5885 2.066l3.269 0.64398c0.0488 9e-3 0.0967 0.0185 0.14189 0.026l0.42937 0.07v-9.0618c-2e-3 -0.73744-0.49072-1.3732-1.1591-1.506l-1.9865-0.396h-2e-3c-0.11434-0.0224-0.23025-0.0337-0.34644-0.034zm6.9343 0.0319-1.9883 0.39399c-0.66938 0.13306-1.161 0.77124-1.1609 1.51v9.0578l0.42752-0.066c0.0511-8e-3 0.0982-0.0178 0.14189-0.026h2e-3l3.2709-0.64398c0.91751-0.18117 1.5886-1.0538 1.5884-2.066v-6.0919c2e-3 -1.3032-1.1-2.3012-2.2813-2.068zm-6.9361 0.77999c0.0722 1.8e-4 0.14458 8e-3 0.21561 0.022l1.9865 0.394c0.31802 0.0632 0.54476 0.3591 0.54546 0.70998v8.1018l-2.9576-0.58199c-0.56622-0.1118-0.9749-0.64136-0.97482-1.266v-6.0919c0-0.71487 0.52645-1.2869 1.1849-1.288zm7.0706 0.018c0.73605-0.14534 1.3979 0.45601 1.3968 1.268v6.0938c9e-5 0.62461-0.40675 1.1542-0.97297 1.266l-2.9576 0.58198v-8.1038c-5e-5 -0.35182 0.22652-0.647 0.54546-0.70999h2e-3z" color="#000000" fill="#2b2b2b" style="-inkscape-stroke:none"/>
  </g>
 </g>
</svg>
