<?xml version="1.0" encoding="UTF-8"?>
<!-- Created with Inkscape (http://www.inkscape.org/) -->
<svg width="23.812mm" height="23.812mm" version="1.1" viewBox="0 0 23.812 23.812" xmlns="http://www.w3.org/2000/svg">
 <g transform="translate(63.416 -267.99)">
  <g transform="translate(-966.7 44.108)" fill-opacity="0">
   <g transform="translate(205.26 15.181)" fill-opacity="0">
    <rect x="698.03" y="208.7" width="23.812" height="23.812" ry="3.3744" fill-opacity="0" style="paint-order:markers fill stroke"/>
   </g>
  </g>
  <path d="m-47.486 273.28-2.5041 0.77488-1.6697 0.51628c-0.4625 0.14308-0.83459 0.7952-0.83459 1.462v1.2038l2.5043-0.77488 1.6692-0.5163c0.4624-0.1431 0.83488-0.7952 0.83488-1.462zm0 3.0641-4.0247 1.2452-2.6829 0.83031c-0.74321 0.22991-1.3417 1.2448-1.3417 2.2755v1.8603l2.4135-0.7466 3.2224-0.99715 1.0717-0.33145c0.74322-0.22992 1.3417-1.245 1.3417-2.2758zm-5.6359 5.4647v4.7004l1.6112-0.22086c0.89269-0.12244 1.6112-0.70594 1.6112-1.308v-3.2595z" fill="#f2f2f2" fill-rule="evenodd"/>
 </g>
</svg>
