<?xml version="1.0" encoding="UTF-8"?>
<!-- Created with Inkscape (http://www.inkscape.org/) -->
<svg width="23.812mm" height="23.812mm" version="1.1" viewBox="0 0 23.812 23.812" xmlns="http://www.w3.org/2000/svg">
 <g transform="translate(8.7266 -205.19)">
  <g transform="translate(-706.75 -3.5179)">
   <rect x="698.03" y="208.7" width="23.812" height="23.812" ry="3.3744" fill-opacity="0" style="paint-order:markers fill stroke"/>
   <path d="m713.79 215.11v-0.28663c0-0.45751-0.36931-0.82682-0.82682-0.82682s-0.82682 0.36931-0.82682 0.82682v0.27561h-4.4097v-0.27561c0-0.45751-0.36931-0.82682-0.82682-0.82682s-0.82682 0.36931-0.82682 0.82682v0.28663c-1.5434 0.14332-2.7561 1.4442-2.7561 3.0207v6.0634c0 1.6702 1.3615 3.0317 3.0317 3.0317h7.1658c1.6702 0 3.0317-1.3615 3.0317-3.0317v-6.0634c0-1.5765-1.2127-2.8773-2.7561-3.0207zm-4.9609 6.6036v-2.2049h2.2049v2.2049zm2.2049 1.6536v2.2049h-2.2049v-2.2049zm-6.0634-3.8585h2.2049v2.2049h-2.2049zm7.717 0h2.2049v2.2049h-2.2049zm-6.339-2.7561h7.1658c0.66697 0 1.2237 0.47405 1.3505 1.1024h-9.8668c0.12678-0.62838 0.68351-1.1024 1.3505-1.1024zm-1.378 7.4414v-0.82682h2.2049v2.2049h-0.82682c-0.76068 0-1.378-0.61736-1.378-1.378zm8.5438 1.378h-0.82682v-2.2049h2.2049v0.82682c0 0.76068-0.61736 1.378-1.378 1.378z" fill="#2b2b2b" stroke-width="5.6444"/>
  </g>
 </g>
</svg>
